<svg xmlns="http://www.w3.org/2000/svg" width="519.8" height="520.7" viewBox="-20 -20 519.8 520.7"><rect x="-20" y="-20" width="519.8" height="520.7" fill="white"/><path d="M98.80,303.70 L98.80,405.70" stroke="red" stroke-width="0.6" fill="none"/><path d="M234.80,303.70 L234.80,405.70" stroke="red" stroke-width="0.6" fill="none"/><path d="M98.80,303.70 L234.80,303.70" stroke="red" stroke-width="0.6" fill="none"/><path d="M98.80,405.70 L234.80,405.70" stroke="red" stroke-width="0.6" fill="none"/><path d="M95.88,304.00 L0.00,304.00" stroke="red" stroke-width="0.6" fill="none"/><path d="M95.88,405.40 L2.92,405.40" stroke="red" stroke-width="0.6" fill="none"/><path d="M237.72,304.00 L333.80,304.00" stroke="red" stroke-width="0.6" fill="none"/><path d="M237.72,405.40 L330.88,405.40" stroke="red" stroke-width="0.6" fill="none"/><path d="M333.80,304.00 L333.80,405.40" stroke="red" stroke-width="0.6" fill="none"/><path d="M333.80,304.00 L333.80,405.70" stroke="red" stroke-width="0.6" fill="none"/><path d="M469.80,304.00 L469.80,405.40" stroke="red" stroke-width="0.6" fill="none"/><path d="M389.45,304.30 L414.15,304.30" stroke="red" stroke-width="0.6" fill="none"/><path d="M333.80,405.70 L469.80,405.70" stroke="red" stroke-width="0.6" fill="none"/><path d="M105.80,206.70 L154.30,206.70" stroke="red" stroke-width="0.6" fill="none"/><path d="M179.30,206.70 L227.80,206.70" stroke="red" stroke-width="0.6" fill="none"/><path d="M333.80,177.00 L333.80,75.00" stroke="red" stroke-width="0.6" fill="none"/><path d="M469.80,176.70 L469.80,75.30" stroke="red" stroke-width="0.6" fill="none"/><path d="M333.80,177.00 L469.80,177.00" stroke="red" stroke-width="0.6" fill="none"/><path d="M333.80,75.00 L469.80,75.00" stroke="red" stroke-width="0.6" fill="none"/><path d="M330.88,176.70 L234.80,176.70" stroke="red" stroke-width="0.6" fill="none"/><path d="M330.88,75.30 L237.72,75.30" stroke="red" stroke-width="0.6" fill="none"/><path d="M234.80,176.70 L234.80,75.00" stroke="red" stroke-width="0.6" fill="none"/><path d="M98.80,176.70 L98.80,75.00" stroke="red" stroke-width="0.6" fill="none"/><path d="M154.45,176.40 L179.15,176.40" stroke="red" stroke-width="0.6" fill="none"/><path d="M98.80,75.00 L234.80,75.00" stroke="red" stroke-width="0.6" fill="none"/><path d="M2.92,176.70 L98.80,176.70" stroke="red" stroke-width="0.6" fill="none"/><path d="M2.92,75.30 L95.88,75.30" stroke="red" stroke-width="0.6" fill="none"/><path d="M330.88,176.70 L235.00,176.70" stroke="red" stroke-width="0.6" fill="none"/><path d="M340.80,274.00 L389.30,274.00" stroke="red" stroke-width="0.6" fill="none"/><path d="M414.30,274.00 L462.80,274.00" stroke="red" stroke-width="0.6" fill="none"/><path d="M98.20,304.30 L98.23,304.30 L98.26,304.30 L98.29,304.29 L98.32,304.29 L98.36,304.28 L98.39,304.27 L98.42,304.26 L98.44,304.25 L98.47,304.23 L98.50,304.22 L98.53,304.20 L98.55,304.19 L98.58,304.17 L98.60,304.15 L98.62,304.12 L98.65,304.10 L98.67,304.08 L98.69,304.05 L98.70,304.03 L98.72,304.00 L98.73,303.97 L98.75,303.94 L98.76,303.92 L98.77,303.89 L98.78,303.86 L98.79,303.82 L98.79,303.79 L98.80,303.76 L98.80,303.73 L98.80,303.70" stroke="#3182ce" stroke-width="0.4" fill="none" stroke-dasharray="2,1"/><path d="M98.20,304.30 L96.40,304.30" stroke="#3182ce" stroke-width="0.4" fill="none" stroke-dasharray="2,1"/><path d="M95.88,304.00 L95.90,304.03 L95.91,304.05 L95.93,304.07 L95.95,304.10 L95.97,304.12 L95.99,304.14 L96.01,304.16 L96.04,304.18 L96.06,304.20 L96.09,304.21 L96.11,304.23 L96.14,304.24 L96.17,304.25 L96.19,304.26 L96.22,304.27 L96.25,304.28 L96.28,304.29 L96.31,304.29 L96.34,304.30 L96.37,304.30 L96.40,304.30" stroke="#3182ce" stroke-width="0.4" fill="none" stroke-dasharray="2,1"/><path d="M98.80,405.70 L98.80,405.67 L98.80,405.64 L98.79,405.61 L98.79,405.58 L98.78,405.54 L98.77,405.51 L98.76,405.48 L98.75,405.46 L98.73,405.43 L98.72,405.40 L98.70,405.37 L98.69,405.35 L98.67,405.32 L98.65,405.30 L98.62,405.28 L98.60,405.25 L98.58,405.23 L98.55,405.21 L98.53,405.20 L98.50,405.18 L98.47,405.17 L98.44,405.15 L98.42,405.14 L98.39,405.13 L98.36,405.12 L98.32,405.11 L98.29,405.11 L98.26,405.10 L98.23,405.10 L98.20,405.10" stroke="#3182ce" stroke-width="0.4" fill="none" stroke-dasharray="2,1"/><path d="M98.20,405.10 L96.40,405.10" stroke="#3182ce" stroke-width="0.4" fill="none" stroke-dasharray="2,1"/><path d="M96.40,405.10 L96.37,405.10 L96.34,405.10 L96.31,405.11 L96.28,405.11 L96.25,405.12 L96.22,405.13 L96.19,405.14 L96.17,405.15 L96.14,405.16 L96.11,405.17 L96.09,405.19 L96.06,405.20 L96.04,405.22 L96.01,405.24 L95.99,405.26 L95.97,405.28 L95.95,405.30 L95.93,405.33 L95.91,405.35 L95.90,405.37 L95.88,405.40" stroke="#3182ce" stroke-width="0.4" fill="none" stroke-dasharray="2,1"/><path d="M2.92,405.40 L2.90,405.37 L2.89,405.35 L2.87,405.33 L2.85,405.30 L2.83,405.28 L2.81,405.26 L2.79,405.24 L2.76,405.22 L2.74,405.20 L2.71,405.19 L2.69,405.17 L2.66,405.16 L2.63,405.15 L2.61,405.14 L2.58,405.13 L2.55,405.12 L2.52,405.11 L2.49,405.11 L2.46,405.10 L2.43,405.10 L2.40,405.10" stroke="#3182ce" stroke-width="0.4" fill="none" stroke-dasharray="2,1"/><path d="M2.40,405.10 L0.00,405.10" stroke="#3182ce" stroke-width="0.4" fill="none" stroke-dasharray="2,1"/><path d="M0.00,304.00 L0.00,405.10" stroke="#3182ce" stroke-width="0.4" fill="none" stroke-dasharray="2,1"/><path d="M234.80,303.70 L234.80,303.73 L234.80,303.76 L234.81,303.79 L234.81,303.82 L234.82,303.86 L234.83,303.89 L234.84,303.92 L234.85,303.94 L234.87,303.97 L234.88,304.00 L234.90,304.03 L234.91,304.05 L234.93,304.08 L234.95,304.10 L234.98,304.12 L235.00,304.15 L235.02,304.17 L235.05,304.19 L235.07,304.20 L235.10,304.22 L235.13,304.23 L235.16,304.25 L235.18,304.26 L235.21,304.27 L235.24,304.28 L235.28,304.29 L235.31,304.29 L235.34,304.30 L235.37,304.30 L235.40,304.30" stroke="#3182ce" stroke-width="0.4" fill="none" stroke-dasharray="2,1"/><path d="M235.40,304.30 L237.20,304.30" stroke="#3182ce" stroke-width="0.4" fill="none" stroke-dasharray="2,1"/><path d="M237.20,304.30 L237.23,304.30 L237.26,304.30 L237.29,304.29 L237.32,304.29 L237.35,304.28 L237.38,304.27 L237.41,304.26 L237.43,304.25 L237.46,304.24 L237.49,304.23 L237.51,304.21 L237.54,304.20 L237.56,304.18 L237.59,304.16 L237.61,304.14 L237.63,304.12 L237.65,304.10 L237.67,304.07 L237.69,304.05 L237.70,304.03 L237.72,304.00" stroke="#3182ce" stroke-width="0.4" fill="none" stroke-dasharray="2,1"/><path d="M235.40,405.10 L235.37,405.10 L235.34,405.10 L235.31,405.11 L235.28,405.11 L235.24,405.12 L235.21,405.13 L235.18,405.14 L235.16,405.15 L235.13,405.17 L235.10,405.18 L235.07,405.20 L235.05,405.21 L235.02,405.23 L235.00,405.25 L234.98,405.28 L234.95,405.30 L234.93,405.32 L234.91,405.35 L234.90,405.37 L234.88,405.40 L234.87,405.43 L234.85,405.46 L234.84,405.48 L234.83,405.51 L234.82,405.54 L234.81,405.58 L234.81,405.61 L234.80,405.64 L234.80,405.67 L234.80,405.70" stroke="#3182ce" stroke-width="0.4" fill="none" stroke-dasharray="2,1"/><path d="M235.40,405.10 L237.20,405.10" stroke="#3182ce" stroke-width="0.4" fill="none" stroke-dasharray="2,1"/><path d="M237.72,405.40 L237.70,405.37 L237.69,405.35 L237.67,405.33 L237.65,405.30 L237.63,405.28 L237.61,405.26 L237.59,405.24 L237.56,405.22 L237.54,405.20 L237.51,405.19 L237.49,405.17 L237.46,405.16 L237.43,405.15 L237.41,405.14 L237.38,405.13 L237.35,405.12 L237.32,405.11 L237.29,405.11 L237.26,405.10 L237.23,405.10 L237.20,405.10" stroke="#3182ce" stroke-width="0.4" fill="none" stroke-dasharray="2,1"/><path d="M331.40,405.10 L331.37,405.10 L331.34,405.10 L331.31,405.11 L331.28,405.11 L331.25,405.12 L331.22,405.13 L331.19,405.14 L331.17,405.15 L331.14,405.16 L331.11,405.17 L331.09,405.19 L331.06,405.20 L331.04,405.22 L331.01,405.24 L330.99,405.26 L330.97,405.28 L330.95,405.30 L330.93,405.33 L330.91,405.35 L330.90,405.37 L330.88,405.40" stroke="#3182ce" stroke-width="0.4" fill="none" stroke-dasharray="2,1"/><path d="M331.40,405.10 L333.20,405.10" stroke="#3182ce" stroke-width="0.4" fill="none" stroke-dasharray="2,1"/><path d="M333.80,405.70 L333.80,405.67 L333.80,405.64 L333.79,405.61 L333.79,405.58 L333.78,405.54 L333.77,405.51 L333.76,405.48 L333.75,405.46 L333.73,405.43 L333.72,405.40 L333.70,405.37 L333.69,405.35 L333.67,405.32 L333.65,405.30 L333.62,405.28 L333.60,405.25 L333.58,405.23 L333.55,405.21 L333.53,405.20 L333.50,405.18 L333.47,405.17 L333.44,405.15 L333.42,405.14 L333.39,405.13 L333.36,405.12 L333.32,405.11 L333.29,405.11 L333.26,405.10 L333.23,405.10 L333.20,405.10" stroke="#3182ce" stroke-width="0.4" fill="none" stroke-dasharray="2,1"/><path d="M469.80,405.40 L469.80,405.70" stroke="#3182ce" stroke-width="0.4" fill="none" stroke-dasharray="2,1"/><path d="M333.80,304.00 L389.30,304.00" stroke="#3182ce" stroke-width="0.4" fill="none" stroke-dasharray="2,1"/><path d="M389.30,304.00 L389.45,304.30" stroke="#3182ce" stroke-width="0.4" fill="none" stroke-dasharray="2,1"/><path d="M414.15,304.30 L414.30,304.00" stroke="#3182ce" stroke-width="0.4" fill="none" stroke-dasharray="2,1"/><path d="M414.30,304.00 L469.80,304.00" stroke="#3182ce" stroke-width="0.4" fill="none" stroke-dasharray="2,1"/><path d="M95.80,303.70 L95.80,303.72 L95.80,303.74 L95.80,303.76 L95.81,303.78 L95.81,303.80 L95.81,303.82 L95.82,303.84 L95.82,303.86 L95.83,303.87 L95.83,303.89 L95.84,303.91 L95.85,303.93 L95.85,303.95 L95.86,303.97 L95.87,303.98 L95.88,304.00" stroke="#3182ce" stroke-width="0.4" fill="none" stroke-dasharray="2,1"/><path d="M95.80,303.70 L95.80,284.00" stroke="#3182ce" stroke-width="0.4" fill="none" stroke-dasharray="2,1"/><path d="M95.80,284.00 L95.79,283.74 L95.77,283.48 L95.74,283.22 L95.69,282.96 L95.63,282.71 L95.56,282.45 L95.47,282.21 L95.37,281.97 L95.26,281.73 L95.13,281.50 L94.99,281.28 L94.85,281.06 L94.69,280.85 L94.52,280.65 L94.34,280.46 L94.15,280.28 L93.95,280.11 L93.74,279.95 L93.52,279.81 L93.30,279.67 L93.07,279.54 L92.83,279.43 L92.59,279.33 L92.35,279.24 L92.09,279.17 L91.84,279.11 L91.58,279.06 L91.32,279.03 L91.06,279.01 L90.80,279.00" stroke="#3182ce" stroke-width="0.4" fill="none" stroke-dasharray="2,1"/><path d="M90.80,279.00 L7.00,279.00" stroke="#3182ce" stroke-width="0.4" fill="none" stroke-dasharray="2,1"/><path d="M7.00,279.00 L6.74,279.01 L6.48,279.03 L6.22,279.06 L5.96,279.11 L5.71,279.17 L5.45,279.24 L5.21,279.33 L4.97,279.43 L4.73,279.54 L4.50,279.67 L4.28,279.81 L4.06,279.95 L3.85,280.11 L3.65,280.28 L3.46,280.46 L3.28,280.65 L3.11,280.85 L2.95,281.06 L2.81,281.28 L2.67,281.50 L2.54,281.73 L2.43,281.97 L2.33,282.21 L2.24,282.45 L2.17,282.71 L2.11,282.96 L2.06,283.22 L2.03,283.48 L2.01,283.74 L2.00,284.00" stroke="#3182ce" stroke-width="0.4" fill="none" stroke-dasharray="2,1"/><path d="M2.00,284.00 L2.00,295.00" stroke="#3182ce" stroke-width="0.4" fill="none" stroke-dasharray="2,1"/><path d="M2.00,295.00 L0.00,297.00" stroke="#3182ce" stroke-width="0.4" fill="none" stroke-dasharray="2,1"/><path d="M0.00,297.00 L0.00,304.00" stroke="#3182ce" stroke-width="0.4" fill="none" stroke-dasharray="2,1"/><path d="M95.88,405.40 L95.87,405.42 L95.86,405.43 L95.85,405.45 L95.85,405.47 L95.84,405.49 L95.83,405.51 L95.83,405.53 L95.82,405.54 L95.82,405.56 L95.81,405.58 L95.81,405.60 L95.81,405.62 L95.80,405.64 L95.80,405.66 L95.80,405.68 L95.80,405.70" stroke="#3182ce" stroke-width="0.4" fill="none" stroke-dasharray="2,1"/><path d="M3.00,405.70 L3.00,405.68 L3.00,405.66 L3.00,405.64 L2.99,405.62 L2.99,405.60 L2.99,405.58 L2.98,405.56 L2.98,405.54 L2.97,405.53 L2.97,405.51 L2.96,405.49 L2.95,405.47 L2.95,405.45 L2.94,405.43 L2.93,405.42 L2.92,405.40" stroke="#3182ce" stroke-width="0.4" fill="none" stroke-dasharray="2,1"/><path d="M95.80,405.70 L95.80,449.40" stroke="#3182ce" stroke-width="0.4" fill="none" stroke-dasharray="2,1"/><path d="M90.80,454.40 L91.06,454.39 L91.32,454.37 L91.58,454.34 L91.84,454.29 L92.09,454.23 L92.35,454.16 L92.59,454.07 L92.83,453.97 L93.07,453.86 L93.30,453.73 L93.52,453.59 L93.74,453.45 L93.95,453.29 L94.15,453.12 L94.34,452.94 L94.52,452.75 L94.69,452.55 L94.85,452.34 L94.99,452.12 L95.13,451.90 L95.26,451.67 L95.37,451.43 L95.47,451.19 L95.56,450.95 L95.63,450.69 L95.69,450.44 L95.74,450.18 L95.77,449.92 L95.79,449.66 L95.80,449.40" stroke="#3182ce" stroke-width="0.4" fill="none" stroke-dasharray="2,1"/><path d="M3.00,405.70 L3.00,449.40" stroke="#3182ce" stroke-width="0.4" fill="none" stroke-dasharray="2,1"/><path d="M3.00,449.40 L3.01,449.66 L3.03,449.92 L3.06,450.18 L3.11,450.44 L3.17,450.69 L3.24,450.95 L3.33,451.19 L3.43,451.43 L3.54,451.67 L3.67,451.90 L3.81,452.12 L3.95,452.34 L4.11,452.55 L4.28,452.75 L4.46,452.94 L4.65,453.12 L4.85,453.29 L5.06,453.45 L5.28,453.59 L5.50,453.73 L5.73,453.86 L5.97,453.97 L6.21,454.07 L6.45,454.16 L6.71,454.23 L6.96,454.29 L7.22,454.34 L7.48,454.37 L7.74,454.39 L8.00,454.40" stroke="#3182ce" stroke-width="0.4" fill="none" stroke-dasharray="2,1"/><path d="M90.80,454.40 L8.00,454.40" stroke="#3182ce" stroke-width="0.4" fill="none" stroke-dasharray="2,1"/><path d="M237.72,304.00 L237.73,303.98 L237.74,303.97 L237.75,303.95 L237.75,303.93 L237.76,303.91 L237.77,303.89 L237.77,303.87 L237.78,303.86 L237.78,303.84 L237.79,303.82 L237.79,303.80 L237.79,303.78 L237.80,303.76 L237.80,303.74 L237.80,303.72 L237.80,303.70" stroke="#3182ce" stroke-width="0.4" fill="none" stroke-dasharray="2,1"/><path d="M237.80,303.70 L237.80,284.00" stroke="#3182ce" stroke-width="0.4" fill="none" stroke-dasharray="2,1"/><path d="M242.80,279.00 L242.54,279.01 L242.28,279.03 L242.02,279.06 L241.76,279.11 L241.51,279.17 L241.25,279.24 L241.01,279.33 L240.77,279.43 L240.53,279.54 L240.30,279.67 L240.08,279.81 L239.86,279.95 L239.65,280.11 L239.45,280.28 L239.26,280.46 L239.08,280.65 L238.91,280.85 L238.75,281.06 L238.61,281.28 L238.47,281.50 L238.34,281.73 L238.23,281.97 L238.13,282.21 L238.04,282.45 L237.97,282.71 L237.91,282.96 L237.86,283.22 L237.83,283.48 L237.81,283.74 L237.80,284.00" stroke="#3182ce" stroke-width="0.4" fill="none" stroke-dasharray="2,1"/><path d="M242.80,279.00 L326.80,279.00" stroke="#3182ce" stroke-width="0.4" fill="none" stroke-dasharray="2,1"/><path d="M331.80,284.00 L331.79,283.74 L331.77,283.48 L331.74,283.22 L331.69,282.96 L331.63,282.71 L331.56,282.45 L331.47,282.21 L331.37,281.97 L331.26,281.73 L331.13,281.50 L330.99,281.28 L330.85,281.06 L330.69,280.85 L330.52,280.65 L330.34,280.46 L330.15,280.28 L329.95,280.11 L329.74,279.95 L329.52,279.81 L329.30,279.67 L329.07,279.54 L328.83,279.43 L328.59,279.33 L328.35,279.24 L328.09,279.17 L327.84,279.11 L327.58,279.06 L327.32,279.03 L327.06,279.01 L326.80,279.00" stroke="#3182ce" stroke-width="0.4" fill="none" stroke-dasharray="2,1"/><path d="M331.80,284.00 L331.80,295.00" stroke="#3182ce" stroke-width="0.4" fill="none" stroke-dasharray="2,1"/><path d="M331.80,295.00 L333.80,297.00" stroke="#3182ce" stroke-width="0.4" fill="none" stroke-dasharray="2,1"/><path d="M333.80,297.00 L333.80,304.00" stroke="#3182ce" stroke-width="0.4" fill="none" stroke-dasharray="2,1"/><path d="M237.80,405.70 L237.80,405.68 L237.80,405.66 L237.80,405.64 L237.79,405.62 L237.79,405.60 L237.79,405.58 L237.78,405.56 L237.78,405.54 L237.77,405.53 L237.77,405.51 L237.76,405.49 L237.75,405.47 L237.75,405.45 L237.74,405.43 L237.73,405.42 L237.72,405.40" stroke="#3182ce" stroke-width="0.4" fill="none" stroke-dasharray="2,1"/><path d="M330.88,405.40 L330.87,405.42 L330.86,405.43 L330.85,405.45 L330.85,405.47 L330.84,405.49 L330.83,405.51 L330.83,405.53 L330.82,405.54 L330.82,405.56 L330.81,405.58 L330.81,405.60 L330.81,405.62 L330.80,405.64 L330.80,405.66 L330.80,405.68 L330.80,405.70" stroke="#3182ce" stroke-width="0.4" fill="none" stroke-dasharray="2,1"/><path d="M237.80,405.70 L237.80,449.40" stroke="#3182ce" stroke-width="0.4" fill="none" stroke-dasharray="2,1"/><path d="M237.80,449.40 L237.81,449.66 L237.83,449.92 L237.86,450.18 L237.91,450.44 L237.97,450.69 L238.04,450.95 L238.13,451.19 L238.23,451.43 L238.34,451.67 L238.47,451.90 L238.61,452.12 L238.75,452.34 L238.91,452.55 L239.08,452.75 L239.26,452.94 L239.45,453.12 L239.65,453.29 L239.86,453.45 L240.08,453.59 L240.30,453.73 L240.53,453.86 L240.77,453.97 L241.01,454.07 L241.25,454.16 L241.51,454.23 L241.76,454.29 L242.02,454.34 L242.28,454.37 L242.54,454.39 L242.80,454.40" stroke="#3182ce" stroke-width="0.4" fill="none" stroke-dasharray="2,1"/><path d="M330.80,405.70 L330.80,449.40" stroke="#3182ce" stroke-width="0.4" fill="none" stroke-dasharray="2,1"/><path d="M325.80,454.40 L326.06,454.39 L326.32,454.37 L326.58,454.34 L326.84,454.29 L327.09,454.23 L327.35,454.16 L327.59,454.07 L327.83,453.97 L328.07,453.86 L328.30,453.73 L328.52,453.59 L328.74,453.45 L328.95,453.29 L329.15,453.12 L329.34,452.94 L329.52,452.75 L329.69,452.55 L329.85,452.34 L329.99,452.12 L330.13,451.90 L330.26,451.67 L330.37,451.43 L330.47,451.19 L330.56,450.95 L330.63,450.69 L330.69,450.44 L330.74,450.18 L330.77,449.92 L330.79,449.66 L330.80,449.40" stroke="#3182ce" stroke-width="0.4" fill="none" stroke-dasharray="2,1"/><path d="M242.80,454.40 L325.80,454.40" stroke="#3182ce" stroke-width="0.4" fill="none" stroke-dasharray="2,1"/><path d="M389.30,304.00 L388.30,302.00" stroke="#3182ce" stroke-width="0.4" fill="none" stroke-dasharray="2,1"/><path d="M414.30,304.00 L415.30,302.00" stroke="#3182ce" stroke-width="0.4" fill="none" stroke-dasharray="2,1"/><path d="M415.30,302.00 L415.07,301.30 L414.80,300.62 L414.49,299.95 L414.16,299.30 L413.79,298.66 L413.38,298.05 L412.95,297.46 L412.48,296.89 L411.99,296.35 L411.47,295.83 L410.92,295.34 L410.35,294.88 L409.75,294.45 L409.13,294.05 L408.50,293.69 L407.84,293.36 L407.17,293.06 L406.48,292.80 L405.78,292.57 L405.07,292.39 L404.36,292.23 L403.63,292.12 L402.90,292.04 L402.17,292.00 L401.43,292.00 L400.70,292.04 L399.97,292.12 L399.24,292.23 L398.53,292.39 L397.82,292.57 L397.12,292.80 L396.43,293.06 L395.76,293.36 L395.10,293.69 L394.47,294.05 L393.85,294.45 L393.25,294.88 L392.68,295.34 L392.13,295.83 L391.61,296.35 L391.12,296.89 L390.65,297.46 L390.22,298.05 L389.81,298.66 L389.44,299.30 L389.11,299.95 L388.80,300.62 L388.53,301.30 L388.30,302.00" stroke="#3182ce" stroke-width="0.4" fill="none" stroke-dasharray="2,1"/><path d="M479.80,307.00 L479.80,402.40" stroke="#3182ce" stroke-width="0.4" fill="none" stroke-dasharray="2,1"/><path d="M469.80,304.00 L479.80,307.00" stroke="#3182ce" stroke-width="0.4" fill="none" stroke-dasharray="2,1"/><path d="M469.80,405.40 L479.80,402.40" stroke="#3182ce" stroke-width="0.4" fill="none" stroke-dasharray="2,1"/><path d="M98.80,303.70 L98.80,209.12" stroke="#3182ce" stroke-width="0.4" fill="none" stroke-dasharray="2,1"/><path d="M99.72,208.12 L99.67,208.13 L99.62,208.14 L99.57,208.15 L99.52,208.16 L99.47,208.18 L99.42,208.20 L99.37,208.22 L99.33,208.24 L99.28,208.26 L99.24,208.29 L99.20,208.32 L99.16,208.35 L99.12,208.39 L99.08,208.42 L99.05,208.46 L99.01,208.50 L98.98,208.54 L98.96,208.59 L98.93,208.63 L98.90,208.67 L98.88,208.72 L98.86,208.77 L98.85,208.82 L98.83,208.87 L98.82,208.92 L98.81,208.97 L98.81,209.02 L98.80,209.07 L98.80,209.12" stroke="#3182ce" stroke-width="0.4" fill="none" stroke-dasharray="2,1"/><path d="M99.72,208.12 L104.80,207.70" stroke="#3182ce" stroke-width="0.4" fill="none" stroke-dasharray="2,1"/><path d="M104.80,207.70 L104.85,207.70 L104.90,207.69 L104.96,207.69 L105.01,207.68 L105.06,207.67 L105.11,207.65 L105.16,207.63 L105.21,207.61 L105.25,207.59 L105.30,207.57 L105.34,207.54 L105.39,207.51 L105.43,207.48 L105.47,207.44 L105.51,207.41 L105.54,207.37 L105.58,207.33 L105.61,207.29 L105.64,207.24 L105.67,207.20 L105.69,207.15 L105.71,207.11 L105.73,207.06 L105.75,207.01 L105.77,206.96 L105.78,206.91 L105.79,206.86 L105.79,206.80 L105.80,206.75 L105.80,206.70" stroke="#3182ce" stroke-width="0.4" fill="none" stroke-dasharray="2,1"/><path d="M234.80,303.70 L234.80,209.12" stroke="#3182ce" stroke-width="0.4" fill="none" stroke-dasharray="2,1"/><path d="M234.80,209.12 L234.80,209.07 L234.79,209.02 L234.79,208.97 L234.78,208.92 L234.77,208.87 L234.75,208.82 L234.74,208.77 L234.72,208.72 L234.70,208.67 L234.67,208.63 L234.64,208.59 L234.62,208.54 L234.59,208.50 L234.55,208.46 L234.52,208.42 L234.48,208.39 L234.44,208.35 L234.40,208.32 L234.36,208.29 L234.32,208.26 L234.27,208.24 L234.23,208.22 L234.18,208.20 L234.13,208.18 L234.08,208.16 L234.03,208.15 L233.98,208.14 L233.93,208.13 L233.88,208.12" stroke="#3182ce" stroke-width="0.4" fill="none" stroke-dasharray="2,1"/><path d="M233.88,208.12 L228.80,207.70" stroke="#3182ce" stroke-width="0.4" fill="none" stroke-dasharray="2,1"/><path d="M227.80,206.70 L227.80,206.75 L227.81,206.80 L227.81,206.86 L227.82,206.91 L227.83,206.96 L227.85,207.01 L227.87,207.06 L227.89,207.11 L227.91,207.15 L227.93,207.20 L227.96,207.24 L227.99,207.29 L228.02,207.33 L228.06,207.37 L228.09,207.41 L228.13,207.44 L228.17,207.48 L228.21,207.51 L228.26,207.54 L228.30,207.57 L228.35,207.59 L228.39,207.61 L228.44,207.63 L228.49,207.65 L228.54,207.67 L228.59,207.68 L228.64,207.69 L228.70,207.69 L228.75,207.70 L228.80,207.70" stroke="#3182ce" stroke-width="0.4" fill="none" stroke-dasharray="2,1"/><path d="M154.30,206.70 L154.80,205.70" stroke="#3182ce" stroke-width="0.4" fill="none" stroke-dasharray="2,1"/><path d="M154.80,205.70 L178.80,205.70" stroke="#3182ce" stroke-width="0.4" fill="none" stroke-dasharray="2,1"/><path d="M178.80,205.70 L179.30,206.70" stroke="#3182ce" stroke-width="0.4" fill="none" stroke-dasharray="2,1"/><path d="M154.30,206.70 L153.80,207.70" stroke="#3182ce" stroke-width="0.4" fill="none" stroke-dasharray="2,1"/><path d="M179.30,206.70 L179.80,207.70" stroke="#3182ce" stroke-width="0.4" fill="none" stroke-dasharray="2,1"/><path d="M105.80,206.70 L105.80,206.65 L105.79,206.60 L105.79,206.54 L105.78,206.49 L105.77,206.44 L105.75,206.39 L105.73,206.34 L105.71,206.29 L105.69,206.25 L105.67,206.20 L105.64,206.16 L105.61,206.11 L105.58,206.07 L105.54,206.03 L105.51,205.99 L105.47,205.96 L105.43,205.92 L105.39,205.89 L105.34,205.86 L105.30,205.83 L105.25,205.81 L105.21,205.79 L105.16,205.77 L105.11,205.75 L105.06,205.73 L105.01,205.72 L104.96,205.71 L104.90,205.71 L104.85,205.70 L104.80,205.70" stroke="#3182ce" stroke-width="0.4" fill="none" stroke-dasharray="2,1"/><path d="M104.80,205.70 L99.80,205.70" stroke="#3182ce" stroke-width="0.4" fill="none" stroke-dasharray="2,1"/><path d="M99.80,205.70 L99.80,196.70" stroke="#3182ce" stroke-width="0.4" fill="none" stroke-dasharray="2,1"/><path d="M104.80,191.70 L104.54,191.71 L104.28,191.73 L104.02,191.76 L103.76,191.81 L103.51,191.87 L103.25,191.94 L103.01,192.03 L102.77,192.13 L102.53,192.24 L102.30,192.37 L102.08,192.51 L101.86,192.65 L101.65,192.81 L101.45,192.98 L101.26,193.16 L101.08,193.35 L100.91,193.55 L100.75,193.76 L100.61,193.98 L100.47,194.20 L100.34,194.43 L100.23,194.67 L100.13,194.91 L100.04,195.15 L99.97,195.41 L99.91,195.66 L99.86,195.92 L99.83,196.18 L99.81,196.44 L99.80,196.70" stroke="#3182ce" stroke-width="0.4" fill="none" stroke-dasharray="2,1"/><path d="M228.80,205.70 L228.75,205.70 L228.70,205.71 L228.64,205.71 L228.59,205.72 L228.54,205.73 L228.49,205.75 L228.44,205.77 L228.39,205.79 L228.35,205.81 L228.30,205.83 L228.26,205.86 L228.21,205.89 L228.17,205.92 L228.13,205.96 L228.09,205.99 L228.06,206.03 L228.02,206.07 L227.99,206.11 L227.96,206.16 L227.93,206.20 L227.91,206.25 L227.89,206.29 L227.87,206.34 L227.85,206.39 L227.83,206.44 L227.82,206.49 L227.81,206.54 L227.81,206.60 L227.80,206.65 L227.80,206.70" stroke="#3182ce" stroke-width="0.4" fill="none" stroke-dasharray="2,1"/><path d="M228.80,205.70 L233.80,205.70" stroke="#3182ce" stroke-width="0.4" fill="none" stroke-dasharray="2,1"/><path d="M233.80,205.70 L233.80,196.70" stroke="#3182ce" stroke-width="0.4" fill="none" stroke-dasharray="2,1"/><path d="M233.80,196.70 L233.79,196.44 L233.77,196.18 L233.74,195.92 L233.69,195.66 L233.63,195.41 L233.56,195.15 L233.47,194.91 L233.37,194.67 L233.26,194.43 L233.13,194.20 L232.99,193.98 L232.85,193.76 L232.69,193.55 L232.52,193.35 L232.34,193.16 L232.15,192.98 L231.95,192.81 L231.74,192.65 L231.52,192.51 L231.30,192.37 L231.07,192.24 L230.83,192.13 L230.59,192.03 L230.35,191.94 L230.09,191.87 L229.84,191.81 L229.58,191.76 L229.32,191.73 L229.06,191.71 L228.80,191.70" stroke="#3182ce" stroke-width="0.4" fill="none" stroke-dasharray="2,1"/><path d="M104.80,191.70 L228.80,191.70" stroke="#3182ce" stroke-width="0.4" fill="none" stroke-dasharray="2,1"/><path d="M98.80,405.70 L98.80,475.70" stroke="#3182ce" stroke-width="0.4" fill="none" stroke-dasharray="2,1"/><path d="M98.80,475.70 L98.81,475.96 L98.83,476.22 L98.86,476.48 L98.91,476.74 L98.97,476.99 L99.04,477.25 L99.13,477.49 L99.23,477.73 L99.34,477.97 L99.47,478.20 L99.61,478.42 L99.75,478.64 L99.91,478.85 L100.08,479.05 L100.26,479.24 L100.45,479.42 L100.65,479.59 L100.86,479.75 L101.08,479.89 L101.30,480.03 L101.53,480.16 L101.77,480.27 L102.01,480.37 L102.25,480.46 L102.51,480.53 L102.76,480.59 L103.02,480.64 L103.28,480.67 L103.54,480.69 L103.80,480.70" stroke="#3182ce" stroke-width="0.4" fill="none" stroke-dasharray="2,1"/><path d="M234.80,405.70 L234.80,475.70" stroke="#3182ce" stroke-width="0.4" fill="none" stroke-dasharray="2,1"/><path d="M229.80,480.70 L230.06,480.69 L230.32,480.67 L230.58,480.64 L230.84,480.59 L231.09,480.53 L231.35,480.46 L231.59,480.37 L231.83,480.27 L232.07,480.16 L232.30,480.03 L232.52,479.89 L232.74,479.75 L232.95,479.59 L233.15,479.42 L233.34,479.24 L233.52,479.05 L233.69,478.85 L233.85,478.64 L233.99,478.42 L234.13,478.20 L234.26,477.97 L234.37,477.73 L234.47,477.49 L234.56,477.25 L234.63,476.99 L234.69,476.74 L234.74,476.48 L234.77,476.22 L234.79,475.96 L234.80,475.70" stroke="#3182ce" stroke-width="0.4" fill="none" stroke-dasharray="2,1"/><path d="M103.80,480.70 L229.80,480.70" stroke="#3182ce" stroke-width="0.4" fill="none" stroke-dasharray="2,1"/><path d="M166.80,442.20 L166.80,467.20" stroke="#3182ce" stroke-width="0.4" fill="none" stroke-dasharray="2,1"/><path d="M166.80,442.20 L154.30,442.20" stroke="#3182ce" stroke-width="0.4" fill="none" stroke-dasharray="2,1"/><path d="M154.30,442.20 L152.80,443.70" stroke="#3182ce" stroke-width="0.4" fill="none" stroke-dasharray="2,1"/><path d="M166.80,442.20 L179.30,442.20" stroke="#3182ce" stroke-width="0.4" fill="none" stroke-dasharray="2,1"/><path d="M179.30,442.20 L180.80,443.70" stroke="#3182ce" stroke-width="0.4" fill="none" stroke-dasharray="2,1"/><path d="M166.80,467.20 L154.30,467.20" stroke="#3182ce" stroke-width="0.4" fill="none" stroke-dasharray="2,1"/><path d="M154.30,467.20 L152.80,465.70" stroke="#3182ce" stroke-width="0.4" fill="none" stroke-dasharray="2,1"/><path d="M166.80,467.20 L179.30,467.20" stroke="#3182ce" stroke-width="0.4" fill="none" stroke-dasharray="2,1"/><path d="M179.30,467.20 L180.80,465.70" stroke="#3182ce" stroke-width="0.4" fill="none" stroke-dasharray="2,1"/><path d="M333.80,405.70 L333.80,446.03" stroke="#3182ce" stroke-width="0.4" fill="none" stroke-dasharray="2,1"/><path d="M333.80,446.03 L333.81,446.28 L333.83,446.54 L333.86,446.79 L333.90,447.04 L333.96,447.28 L334.03,447.53 L334.11,447.76 L334.20,448.00 L334.31,448.23 L334.43,448.45 L334.56,448.67 L334.69,448.88 L334.84,449.09 L335.00,449.28 L335.17,449.47 L335.35,449.65 L335.54,449.82 L335.74,449.98 L335.94,450.13 L336.15,450.27 L336.37,450.40 L336.59,450.52 L336.82,450.62 L337.06,450.72 L337.30,450.80" stroke="#3182ce" stroke-width="0.4" fill="none" stroke-dasharray="2,1"/><path d="M337.30,450.80 L389.30,467.20" stroke="#3182ce" stroke-width="0.4" fill="none" stroke-dasharray="2,1"/><path d="M389.30,467.20 L389.32,467.85 L389.37,468.51 L389.45,469.16 L389.57,469.80 L389.73,470.44 L389.91,471.06 L390.13,471.68 L390.38,472.28 L390.66,472.87 L390.97,473.45 L391.32,474.01 L391.69,474.55 L392.09,475.07 L392.51,475.56 L392.96,476.04 L393.44,476.49 L393.93,476.91 L394.45,477.31 L394.99,477.68 L395.55,478.03 L396.13,478.34 L396.72,478.62 L397.32,478.87 L397.94,479.09 L398.56,479.27 L399.20,479.43 L399.84,479.55 L400.49,479.63 L401.15,479.68 L401.80,479.70 L402.45,479.68 L403.11,479.63 L403.76,479.55 L404.40,479.43 L405.04,479.27 L405.66,479.09 L406.28,478.87 L406.88,478.62 L407.47,478.34 L408.05,478.03 L408.61,477.68 L409.15,477.31 L409.67,476.91 L410.16,476.49 L410.64,476.04 L411.09,475.56 L411.51,475.07 L411.91,474.55 L412.28,474.01 L412.63,473.45 L412.94,472.87 L413.22,472.28 L413.47,471.68 L413.69,471.06 L413.87,470.44 L414.03,469.80 L414.15,469.16 L414.23,468.51 L414.28,467.85 L414.30,467.20" stroke="#3182ce" stroke-width="0.4" fill="none" stroke-dasharray="2,1"/><path d="M469.80,405.70 L469.80,446.03" stroke="#3182ce" stroke-width="0.4" fill="none" stroke-dasharray="2,1"/><path d="M466.30,450.80 L466.54,450.72 L466.78,450.62 L467.01,450.52 L467.23,450.40 L467.45,450.27 L467.66,450.13 L467.86,449.98 L468.06,449.82 L468.25,449.65 L468.43,449.47 L468.60,449.28 L468.76,449.09 L468.91,448.88 L469.04,448.67 L469.17,448.45 L469.29,448.23 L469.40,448.00 L469.49,447.76 L469.57,447.53 L469.64,447.28 L469.70,447.04 L469.74,446.79 L469.77,446.54 L469.79,446.28 L469.80,446.03" stroke="#3182ce" stroke-width="0.4" fill="none" stroke-dasharray="2,1"/><path d="M466.30,450.80 L414.30,467.20" stroke="#3182ce" stroke-width="0.4" fill="none" stroke-dasharray="2,1"/><path d="M414.30,442.20 L414.28,441.55 L414.23,440.89 L414.15,440.24 L414.03,439.60 L413.87,438.96 L413.69,438.34 L413.47,437.72 L413.22,437.12 L412.94,436.53 L412.63,435.95 L412.28,435.39 L411.91,434.85 L411.51,434.33 L411.09,433.84 L410.64,433.36 L410.16,432.91 L409.67,432.49 L409.15,432.09 L408.61,431.72 L408.05,431.37 L407.47,431.06 L406.88,430.78 L406.28,430.53 L405.66,430.31 L405.04,430.13 L404.40,429.97 L403.76,429.85 L403.11,429.77 L402.45,429.72 L401.80,429.70 L401.15,429.72 L400.49,429.77 L399.84,429.85 L399.20,429.97 L398.56,430.13 L397.94,430.31 L397.32,430.53 L396.72,430.78 L396.13,431.06 L395.55,431.37 L394.99,431.72 L394.45,432.09 L393.93,432.49 L393.44,432.91 L392.96,433.36 L392.51,433.84 L392.09,434.33 L391.69,434.85 L391.32,435.39 L390.97,435.95 L390.66,436.53 L390.38,437.12 L390.13,437.72 L389.91,438.34 L389.73,438.96 L389.57,439.60 L389.45,440.24 L389.37,440.89 L389.32,441.55 L389.30,442.20" stroke="#3182ce" stroke-width="0.4" fill="none" stroke-dasharray="2,1"/><path d="M386.74,443.26 L386.80,443.31 L386.86,443.37 L386.92,443.41 L386.98,443.46 L387.05,443.50 L387.12,443.54 L387.19,443.57 L387.26,443.60 L387.34,443.63 L387.41,443.65 L387.49,443.67 L387.57,443.68 L387.64,443.69 L387.72,443.70 L387.80,443.70 L387.88,443.70 L387.96,443.69 L388.03,443.68 L388.11,443.67 L388.19,443.65 L388.26,443.63 L388.34,443.60 L388.41,443.57 L388.48,443.54 L388.55,443.50 L388.62,443.46 L388.68,443.41 L388.74,443.37 L388.80,443.31 L388.86,443.26 L388.91,443.20 L388.97,443.14 L389.01,443.08 L389.06,443.02 L389.10,442.95 L389.14,442.88 L389.17,442.81 L389.20,442.74 L389.23,442.66 L389.25,442.59 L389.27,442.51 L389.28,442.43 L389.29,442.36 L389.30,442.28 L389.30,442.20" stroke="#3182ce" stroke-width="0.4" fill="none" stroke-dasharray="2,1"/><path d="M386.74,443.26 L385.24,441.76" stroke="#3182ce" stroke-width="0.4" fill="none" stroke-dasharray="2,1"/><path d="M414.30,442.20 L414.30,442.28 L414.31,442.36 L414.32,442.43 L414.33,442.51 L414.35,442.59 L414.37,442.66 L414.40,442.74 L414.43,442.81 L414.46,442.88 L414.50,442.95 L414.54,443.02 L414.59,443.08 L414.63,443.14 L414.69,443.20 L414.74,443.26 L414.80,443.31 L414.86,443.37 L414.92,443.41 L414.98,443.46 L415.05,443.50 L415.12,443.54 L415.19,443.57 L415.26,443.60 L415.34,443.63 L415.41,443.65 L415.49,443.67 L415.57,443.68 L415.64,443.69 L415.72,443.70 L415.80,443.70 L415.88,443.70 L415.96,443.69 L416.03,443.68 L416.11,443.67 L416.19,443.65 L416.26,443.63 L416.34,443.60 L416.41,443.57 L416.48,443.54 L416.55,443.50 L416.62,443.46 L416.68,443.41 L416.74,443.37 L416.80,443.31 L416.86,443.26" stroke="#3182ce" stroke-width="0.4" fill="none" stroke-dasharray="2,1"/><path d="M416.86,443.26 L418.36,441.76" stroke="#3182ce" stroke-width="0.4" fill="none" stroke-dasharray="2,1"/><path d="M469.80,176.70 L469.80,177.00" stroke="#3182ce" stroke-width="0.4" fill="none" stroke-dasharray="2,1"/><path d="M469.80,75.30 L469.80,75.00" stroke="#3182ce" stroke-width="0.4" fill="none" stroke-dasharray="2,1"/><path d="M333.80,177.00 L333.80,176.97 L333.80,176.94 L333.79,176.91 L333.79,176.88 L333.78,176.84 L333.77,176.81 L333.76,176.78 L333.75,176.76 L333.73,176.73 L333.72,176.70 L333.70,176.67 L333.69,176.65 L333.67,176.62 L333.65,176.60 L333.62,176.58 L333.60,176.55 L333.58,176.53 L333.55,176.51 L333.53,176.50 L333.50,176.48 L333.47,176.47 L333.44,176.45 L333.42,176.44 L333.39,176.43 L333.36,176.42 L333.32,176.41 L333.29,176.41 L333.26,176.40 L333.23,176.40 L333.20,176.40" stroke="#3182ce" stroke-width="0.4" fill="none" stroke-dasharray="2,1"/><path d="M333.20,176.40 L331.40,176.40" stroke="#3182ce" stroke-width="0.4" fill="none" stroke-dasharray="2,1"/><path d="M331.40,176.40 L331.37,176.40 L331.34,176.40 L331.31,176.41 L331.28,176.41 L331.25,176.42 L331.22,176.43 L331.19,176.44 L331.17,176.45 L331.14,176.46 L331.11,176.47 L331.09,176.49 L331.06,176.50 L331.04,176.52 L331.01,176.54 L330.99,176.56 L330.97,176.58 L330.95,176.60 L330.93,176.63 L330.91,176.65 L330.90,176.67 L330.88,176.70" stroke="#3182ce" stroke-width="0.4" fill="none" stroke-dasharray="2,1"/><path d="M333.20,75.60 L333.23,75.60 L333.26,75.60 L333.29,75.59 L333.32,75.59 L333.36,75.58 L333.39,75.57 L333.42,75.56 L333.44,75.55 L333.47,75.53 L333.50,75.52 L333.53,75.50 L333.55,75.49 L333.58,75.47 L333.60,75.45 L333.62,75.42 L333.65,75.40 L333.67,75.38 L333.69,75.35 L333.70,75.33 L333.72,75.30 L333.73,75.27 L333.75,75.24 L333.76,75.22 L333.77,75.19 L333.78,75.16 L333.79,75.12 L333.79,75.09 L333.80,75.06 L333.80,75.03 L333.80,75.00" stroke="#3182ce" stroke-width="0.4" fill="none" stroke-dasharray="2,1"/><path d="M333.20,75.60 L331.40,75.60" stroke="#3182ce" stroke-width="0.4" fill="none" stroke-dasharray="2,1"/><path d="M330.88,75.30 L330.90,75.33 L330.91,75.35 L330.93,75.37 L330.95,75.40 L330.97,75.42 L330.99,75.44 L331.01,75.46 L331.04,75.48 L331.06,75.50 L331.09,75.51 L331.11,75.53 L331.14,75.54 L331.17,75.55 L331.19,75.56 L331.22,75.57 L331.25,75.58 L331.28,75.59 L331.31,75.59 L331.34,75.60 L331.37,75.60 L331.40,75.60" stroke="#3182ce" stroke-width="0.4" fill="none" stroke-dasharray="2,1"/><path d="M237.20,75.60 L237.23,75.60 L237.26,75.60 L237.29,75.59 L237.32,75.59 L237.35,75.58 L237.38,75.57 L237.41,75.56 L237.43,75.55 L237.46,75.54 L237.49,75.53 L237.51,75.51 L237.54,75.50 L237.56,75.48 L237.59,75.46 L237.61,75.44 L237.63,75.42 L237.65,75.40 L237.67,75.37 L237.69,75.35 L237.70,75.33 L237.72,75.30" stroke="#3182ce" stroke-width="0.4" fill="none" stroke-dasharray="2,1"/><path d="M237.20,75.60 L235.40,75.60" stroke="#3182ce" stroke-width="0.4" fill="none" stroke-dasharray="2,1"/><path d="M234.80,75.00 L234.80,75.03 L234.80,75.06 L234.81,75.09 L234.81,75.12 L234.82,75.16 L234.83,75.19 L234.84,75.22 L234.85,75.24 L234.87,75.27 L234.88,75.30 L234.90,75.33 L234.91,75.35 L234.93,75.38 L234.95,75.40 L234.98,75.42 L235.00,75.45 L235.02,75.47 L235.05,75.49 L235.07,75.50 L235.10,75.52 L235.13,75.53 L235.16,75.55 L235.18,75.56 L235.21,75.57 L235.24,75.58 L235.28,75.59 L235.31,75.59 L235.34,75.60 L235.37,75.60 L235.40,75.60" stroke="#3182ce" stroke-width="0.4" fill="none" stroke-dasharray="2,1"/><path d="M98.80,176.70 L154.30,176.70" stroke="#3182ce" stroke-width="0.4" fill="none" stroke-dasharray="2,1"/><path d="M154.30,176.70 L154.45,176.40" stroke="#3182ce" stroke-width="0.4" fill="none" stroke-dasharray="2,1"/><path d="M179.15,176.40 L179.30,176.70" stroke="#3182ce" stroke-width="0.4" fill="none" stroke-dasharray="2,1"/><path d="M179.30,176.70 L234.80,176.70" stroke="#3182ce" stroke-width="0.4" fill="none" stroke-dasharray="2,1"/><path d="M0.00,176.40 L0.00,75.60" stroke="#3182ce" stroke-width="0.4" fill="none" stroke-dasharray="2,1"/><path d="M0.00,176.40 L2.40,176.40" stroke="#3182ce" stroke-width="0.4" fill="none" stroke-dasharray="2,1"/><path d="M2.92,176.70 L2.90,176.67 L2.89,176.65 L2.87,176.63 L2.85,176.60 L2.83,176.58 L2.81,176.56 L2.79,176.54 L2.76,176.52 L2.74,176.50 L2.71,176.49 L2.69,176.47 L2.66,176.46 L2.63,176.45 L2.61,176.44 L2.58,176.43 L2.55,176.42 L2.52,176.41 L2.49,176.41 L2.46,176.40 L2.43,176.40 L2.40,176.40" stroke="#3182ce" stroke-width="0.4" fill="none" stroke-dasharray="2,1"/><path d="M0.00,75.60 L2.40,75.60" stroke="#3182ce" stroke-width="0.4" fill="none" stroke-dasharray="2,1"/><path d="M2.40,75.60 L2.43,75.60 L2.46,75.60 L2.49,75.59 L2.52,75.59 L2.55,75.58 L2.58,75.57 L2.61,75.56 L2.63,75.55 L2.66,75.54 L2.69,75.53 L2.71,75.51 L2.74,75.50 L2.76,75.48 L2.79,75.46 L2.81,75.44 L2.83,75.42 L2.85,75.40 L2.87,75.37 L2.89,75.35 L2.90,75.33 L2.92,75.30" stroke="#3182ce" stroke-width="0.4" fill="none" stroke-dasharray="2,1"/><path d="M95.88,75.30 L95.90,75.33 L95.91,75.35 L95.93,75.37 L95.95,75.40 L95.97,75.42 L95.99,75.44 L96.01,75.46 L96.04,75.48 L96.06,75.50 L96.09,75.51 L96.11,75.53 L96.14,75.54 L96.17,75.55 L96.19,75.56 L96.22,75.57 L96.25,75.58 L96.28,75.59 L96.31,75.59 L96.34,75.60 L96.37,75.60 L96.40,75.60" stroke="#3182ce" stroke-width="0.4" fill="none" stroke-dasharray="2,1"/><path d="M96.40,75.60 L98.20,75.60" stroke="#3182ce" stroke-width="0.4" fill="none" stroke-dasharray="2,1"/><path d="M98.20,75.60 L98.23,75.60 L98.26,75.60 L98.29,75.59 L98.32,75.59 L98.36,75.58 L98.39,75.57 L98.42,75.56 L98.44,75.55 L98.47,75.53 L98.50,75.52 L98.53,75.50 L98.55,75.49 L98.58,75.47 L98.60,75.45 L98.62,75.42 L98.65,75.40 L98.67,75.38 L98.69,75.35 L98.70,75.33 L98.72,75.30 L98.73,75.27 L98.75,75.24 L98.76,75.22 L98.77,75.19 L98.78,75.16 L98.79,75.12 L98.79,75.09 L98.80,75.06 L98.80,75.03 L98.80,75.00" stroke="#3182ce" stroke-width="0.4" fill="none" stroke-dasharray="2,1"/><path d="M479.80,173.70 L479.80,78.30" stroke="#3182ce" stroke-width="0.4" fill="none" stroke-dasharray="2,1"/><path d="M469.80,176.70 L479.80,173.70" stroke="#3182ce" stroke-width="0.4" fill="none" stroke-dasharray="2,1"/><path d="M469.80,75.30 L479.80,78.30" stroke="#3182ce" stroke-width="0.4" fill="none" stroke-dasharray="2,1"/><path d="M330.80,75.00 L330.80,75.02 L330.80,75.04 L330.80,75.06 L330.81,75.08 L330.81,75.10 L330.81,75.12 L330.82,75.14 L330.82,75.16 L330.83,75.17 L330.83,75.19 L330.84,75.21 L330.85,75.23 L330.85,75.25 L330.86,75.27 L330.87,75.28 L330.88,75.30" stroke="#3182ce" stroke-width="0.4" fill="none" stroke-dasharray="2,1"/><path d="M237.72,75.30 L237.73,75.28 L237.74,75.27 L237.75,75.25 L237.75,75.23 L237.76,75.21 L237.77,75.19 L237.77,75.17 L237.78,75.16 L237.78,75.14 L237.79,75.12 L237.79,75.10 L237.79,75.08 L237.80,75.06 L237.80,75.04 L237.80,75.02 L237.80,75.00" stroke="#3182ce" stroke-width="0.4" fill="none" stroke-dasharray="2,1"/><path d="M330.80,75.00 L330.80,31.30" stroke="#3182ce" stroke-width="0.4" fill="none" stroke-dasharray="2,1"/><path d="M330.80,31.30 L330.79,31.04 L330.77,30.78 L330.74,30.52 L330.69,30.26 L330.63,30.01 L330.56,29.75 L330.47,29.51 L330.37,29.27 L330.26,29.03 L330.13,28.80 L329.99,28.58 L329.85,28.36 L329.69,28.15 L329.52,27.95 L329.34,27.76 L329.15,27.58 L328.95,27.41 L328.74,27.25 L328.52,27.11 L328.30,26.97 L328.07,26.84 L327.83,26.73 L327.59,26.63 L327.35,26.54 L327.09,26.47 L326.84,26.41 L326.58,26.36 L326.32,26.33 L326.06,26.31 L325.80,26.30" stroke="#3182ce" stroke-width="0.4" fill="none" stroke-dasharray="2,1"/><path d="M237.80,75.00 L237.80,31.30" stroke="#3182ce" stroke-width="0.4" fill="none" stroke-dasharray="2,1"/><path d="M242.80,26.30 L242.54,26.31 L242.28,26.33 L242.02,26.36 L241.76,26.41 L241.51,26.47 L241.25,26.54 L241.01,26.63 L240.77,26.73 L240.53,26.84 L240.30,26.97 L240.08,27.11 L239.86,27.25 L239.65,27.41 L239.45,27.58 L239.26,27.76 L239.08,27.95 L238.91,28.15 L238.75,28.36 L238.61,28.58 L238.47,28.80 L238.34,29.03 L238.23,29.27 L238.13,29.51 L238.04,29.75 L237.97,30.01 L237.91,30.26 L237.86,30.52 L237.83,30.78 L237.81,31.04 L237.80,31.30" stroke="#3182ce" stroke-width="0.4" fill="none" stroke-dasharray="2,1"/><path d="M325.80,26.30 L242.80,26.30" stroke="#3182ce" stroke-width="0.4" fill="none" stroke-dasharray="2,1"/><path d="M330.88,176.70 L330.87,176.72 L330.86,176.73 L330.85,176.75 L330.85,176.77 L330.84,176.79 L330.83,176.81 L330.83,176.83 L330.82,176.84 L330.82,176.86 L330.81,176.88 L330.81,176.90 L330.81,176.92 L330.80,176.94 L330.80,176.96 L330.80,176.98 L330.80,177.00" stroke="#3182ce" stroke-width="0.4" fill="none" stroke-dasharray="2,1"/><path d="M330.80,177.00 L330.80,196.70" stroke="#3182ce" stroke-width="0.4" fill="none" stroke-dasharray="2,1"/><path d="M325.80,201.70 L326.06,201.69 L326.32,201.67 L326.58,201.64 L326.84,201.59 L327.09,201.53 L327.35,201.46 L327.59,201.37 L327.83,201.27 L328.07,201.16 L328.30,201.03 L328.52,200.89 L328.74,200.75 L328.95,200.59 L329.15,200.42 L329.34,200.24 L329.52,200.05 L329.69,199.85 L329.85,199.64 L329.99,199.42 L330.13,199.20 L330.26,198.97 L330.37,198.73 L330.47,198.49 L330.56,198.25 L330.63,197.99 L330.69,197.74 L330.74,197.48 L330.77,197.22 L330.79,196.96 L330.80,196.70" stroke="#3182ce" stroke-width="0.4" fill="none" stroke-dasharray="2,1"/><path d="M325.80,201.70 L241.80,201.70" stroke="#3182ce" stroke-width="0.4" fill="none" stroke-dasharray="2,1"/><path d="M236.80,196.70 L236.81,196.96 L236.83,197.22 L236.86,197.48 L236.91,197.74 L236.97,197.99 L237.04,198.25 L237.13,198.49 L237.23,198.73 L237.34,198.97 L237.47,199.20 L237.61,199.42 L237.75,199.64 L237.91,199.85 L238.08,200.05 L238.26,200.24 L238.45,200.42 L238.65,200.59 L238.86,200.75 L239.08,200.89 L239.30,201.03 L239.53,201.16 L239.77,201.27 L240.01,201.37 L240.25,201.46 L240.51,201.53 L240.76,201.59 L241.02,201.64 L241.28,201.67 L241.54,201.69 L241.80,201.70" stroke="#3182ce" stroke-width="0.4" fill="none" stroke-dasharray="2,1"/><path d="M236.80,196.70 L236.80,185.70" stroke="#3182ce" stroke-width="0.4" fill="none" stroke-dasharray="2,1"/><path d="M236.80,185.70 L234.80,183.70" stroke="#3182ce" stroke-width="0.4" fill="none" stroke-dasharray="2,1"/><path d="M234.80,183.70 L234.80,176.70" stroke="#3182ce" stroke-width="0.4" fill="none" stroke-dasharray="2,1"/><path d="M154.30,176.70 L153.30,178.70" stroke="#3182ce" stroke-width="0.4" fill="none" stroke-dasharray="2,1"/><path d="M179.30,176.70 L180.30,178.70" stroke="#3182ce" stroke-width="0.4" fill="none" stroke-dasharray="2,1"/><path d="M153.30,178.70 L153.53,179.40 L153.80,180.08 L154.11,180.75 L154.44,181.40 L154.81,182.04 L155.22,182.65 L155.65,183.24 L156.12,183.81 L156.61,184.35 L157.13,184.87 L157.68,185.36 L158.25,185.82 L158.85,186.25 L159.47,186.65 L160.10,187.01 L160.76,187.34 L161.43,187.64 L162.12,187.90 L162.82,188.13 L163.53,188.31 L164.24,188.47 L164.97,188.58 L165.70,188.66 L166.43,188.70 L167.17,188.70 L167.90,188.66 L168.63,188.58 L169.36,188.47 L170.07,188.31 L170.78,188.13 L171.48,187.90 L172.17,187.64 L172.84,187.34 L173.50,187.01 L174.13,186.65 L174.75,186.25 L175.35,185.82 L175.92,185.36 L176.47,184.87 L176.99,184.35 L177.48,183.81 L177.95,183.24 L178.38,182.65 L178.79,182.04 L179.16,181.40 L179.49,180.75 L179.80,180.08 L180.07,179.40 L180.30,178.70" stroke="#3182ce" stroke-width="0.4" fill="none" stroke-dasharray="2,1"/><path d="M2.92,75.30 L2.93,75.28 L2.94,75.27 L2.95,75.25 L2.95,75.23 L2.96,75.21 L2.97,75.19 L2.97,75.17 L2.98,75.16 L2.98,75.14 L2.99,75.12 L2.99,75.10 L2.99,75.08 L3.00,75.06 L3.00,75.04 L3.00,75.02 L3.00,75.00" stroke="#3182ce" stroke-width="0.4" fill="none" stroke-dasharray="2,1"/><path d="M95.80,75.00 L95.80,75.02 L95.80,75.04 L95.80,75.06 L95.81,75.08 L95.81,75.10 L95.81,75.12 L95.82,75.14 L95.82,75.16 L95.83,75.17 L95.83,75.19 L95.84,75.21 L95.85,75.23 L95.85,75.25 L95.86,75.27 L95.87,75.28 L95.88,75.30" stroke="#3182ce" stroke-width="0.4" fill="none" stroke-dasharray="2,1"/><path d="M3.00,75.00 L3.00,31.30" stroke="#3182ce" stroke-width="0.4" fill="none" stroke-dasharray="2,1"/><path d="M8.00,26.30 L7.74,26.31 L7.48,26.33 L7.22,26.36 L6.96,26.41 L6.71,26.47 L6.45,26.54 L6.21,26.63 L5.97,26.73 L5.73,26.84 L5.50,26.97 L5.28,27.11 L5.06,27.25 L4.85,27.41 L4.65,27.58 L4.46,27.76 L4.28,27.95 L4.11,28.15 L3.95,28.36 L3.81,28.58 L3.67,28.80 L3.54,29.03 L3.43,29.27 L3.33,29.51 L3.24,29.75 L3.17,30.01 L3.11,30.26 L3.06,30.52 L3.03,30.78 L3.01,31.04 L3.00,31.30" stroke="#3182ce" stroke-width="0.4" fill="none" stroke-dasharray="2,1"/><path d="M95.80,75.00 L95.80,31.30" stroke="#3182ce" stroke-width="0.4" fill="none" stroke-dasharray="2,1"/><path d="M95.80,31.30 L95.79,31.04 L95.77,30.78 L95.74,30.52 L95.69,30.26 L95.63,30.01 L95.56,29.75 L95.47,29.51 L95.37,29.27 L95.26,29.03 L95.13,28.80 L94.99,28.58 L94.85,28.36 L94.69,28.15 L94.52,27.95 L94.34,27.76 L94.15,27.58 L93.95,27.41 L93.74,27.25 L93.52,27.11 L93.30,26.97 L93.07,26.84 L92.83,26.73 L92.59,26.63 L92.35,26.54 L92.09,26.47 L91.84,26.41 L91.58,26.36 L91.32,26.33 L91.06,26.31 L90.80,26.30" stroke="#3182ce" stroke-width="0.4" fill="none" stroke-dasharray="2,1"/><path d="M8.00,26.30 L90.80,26.30" stroke="#3182ce" stroke-width="0.4" fill="none" stroke-dasharray="2,1"/><path d="M3.00,177.00 L3.00,176.98 L3.00,176.96 L3.00,176.94 L2.99,176.92 L2.99,176.90 L2.99,176.88 L2.98,176.86 L2.98,176.84 L2.97,176.83 L2.97,176.81 L2.96,176.79 L2.95,176.77 L2.95,176.75 L2.94,176.73 L2.93,176.72 L2.92,176.70" stroke="#3182ce" stroke-width="0.4" fill="none" stroke-dasharray="2,1"/><path d="M3.00,177.00 L3.00,196.70" stroke="#3182ce" stroke-width="0.4" fill="none" stroke-dasharray="2,1"/><path d="M3.00,196.70 L3.01,196.96 L3.03,197.22 L3.06,197.48 L3.11,197.74 L3.17,197.99 L3.24,198.25 L3.33,198.49 L3.43,198.73 L3.54,198.97 L3.67,199.20 L3.81,199.42 L3.95,199.64 L4.11,199.85 L4.28,200.05 L4.46,200.24 L4.65,200.42 L4.85,200.59 L5.06,200.75 L5.28,200.89 L5.50,201.03 L5.73,201.16 L5.97,201.27 L6.21,201.37 L6.45,201.46 L6.71,201.53 L6.96,201.59 L7.22,201.64 L7.48,201.67 L7.74,201.69 L8.00,201.70" stroke="#3182ce" stroke-width="0.4" fill="none" stroke-dasharray="2,1"/><path d="M8.00,201.70 L91.80,201.70" stroke="#3182ce" stroke-width="0.4" fill="none" stroke-dasharray="2,1"/><path d="M91.80,201.70 L92.06,201.69 L92.32,201.67 L92.58,201.64 L92.84,201.59 L93.09,201.53 L93.35,201.46 L93.59,201.37 L93.83,201.27 L94.07,201.16 L94.30,201.03 L94.52,200.89 L94.74,200.75 L94.95,200.59 L95.15,200.42 L95.34,200.24 L95.52,200.05 L95.69,199.85 L95.85,199.64 L95.99,199.42 L96.13,199.20 L96.26,198.97 L96.37,198.73 L96.47,198.49 L96.56,198.25 L96.63,197.99 L96.69,197.74 L96.74,197.48 L96.77,197.22 L96.79,196.96 L96.80,196.70" stroke="#3182ce" stroke-width="0.4" fill="none" stroke-dasharray="2,1"/><path d="M96.80,196.70 L96.80,185.70" stroke="#3182ce" stroke-width="0.4" fill="none" stroke-dasharray="2,1"/><path d="M96.80,185.70 L98.80,183.70" stroke="#3182ce" stroke-width="0.4" fill="none" stroke-dasharray="2,1"/><path d="M98.80,183.70 L98.80,176.70" stroke="#3182ce" stroke-width="0.4" fill="none" stroke-dasharray="2,1"/><path d="M333.80,177.00 L333.80,271.58" stroke="#3182ce" stroke-width="0.4" fill="none" stroke-dasharray="2,1"/><path d="M333.80,271.58 L333.80,271.63 L333.81,271.68 L333.81,271.73 L333.82,271.78 L333.83,271.83 L333.85,271.88 L333.86,271.93 L333.88,271.98 L333.90,272.03 L333.93,272.07 L333.96,272.11 L333.98,272.16 L334.01,272.20 L334.05,272.24 L334.08,272.28 L334.12,272.31 L334.16,272.35 L334.20,272.38 L334.24,272.41 L334.28,272.44 L334.33,272.46 L334.37,272.48 L334.42,272.50 L334.47,272.52 L334.52,272.54 L334.57,272.55 L334.62,272.56 L334.67,272.57 L334.72,272.58" stroke="#3182ce" stroke-width="0.4" fill="none" stroke-dasharray="2,1"/><path d="M334.72,272.58 L339.80,273.00" stroke="#3182ce" stroke-width="0.4" fill="none" stroke-dasharray="2,1"/><path d="M340.80,274.00 L340.80,273.95 L340.79,273.90 L340.79,273.84 L340.78,273.79 L340.77,273.74 L340.75,273.69 L340.73,273.64 L340.71,273.59 L340.69,273.55 L340.67,273.50 L340.64,273.46 L340.61,273.41 L340.58,273.37 L340.54,273.33 L340.51,273.29 L340.47,273.26 L340.43,273.22 L340.39,273.19 L340.34,273.16 L340.30,273.13 L340.25,273.11 L340.21,273.09 L340.16,273.07 L340.11,273.05 L340.06,273.03 L340.01,273.02 L339.96,273.01 L339.90,273.01 L339.85,273.00 L339.80,273.00" stroke="#3182ce" stroke-width="0.4" fill="none" stroke-dasharray="2,1"/><path d="M469.80,177.00 L469.80,271.58" stroke="#3182ce" stroke-width="0.4" fill="none" stroke-dasharray="2,1"/><path d="M468.88,272.58 L468.93,272.57 L468.98,272.56 L469.03,272.55 L469.08,272.54 L469.13,272.52 L469.18,272.50 L469.23,272.48 L469.27,272.46 L469.32,272.44 L469.36,272.41 L469.40,272.38 L469.44,272.35 L469.48,272.31 L469.52,272.28 L469.55,272.24 L469.59,272.20 L469.62,272.16 L469.64,272.11 L469.67,272.07 L469.70,272.03 L469.72,271.98 L469.74,271.93 L469.75,271.88 L469.77,271.83 L469.78,271.78 L469.79,271.73 L469.79,271.68 L469.80,271.63 L469.80,271.58" stroke="#3182ce" stroke-width="0.4" fill="none" stroke-dasharray="2,1"/><path d="M468.88,272.58 L463.80,273.00" stroke="#3182ce" stroke-width="0.4" fill="none" stroke-dasharray="2,1"/><path d="M463.80,273.00 L463.75,273.00 L463.70,273.01 L463.64,273.01 L463.59,273.02 L463.54,273.03 L463.49,273.05 L463.44,273.07 L463.39,273.09 L463.35,273.11 L463.30,273.13 L463.26,273.16 L463.21,273.19 L463.17,273.22 L463.13,273.26 L463.09,273.29 L463.06,273.33 L463.02,273.37 L462.99,273.41 L462.96,273.46 L462.93,273.50 L462.91,273.55 L462.89,273.59 L462.87,273.64 L462.85,273.69 L462.83,273.74 L462.82,273.79 L462.81,273.84 L462.81,273.90 L462.80,273.95 L462.80,274.00" stroke="#3182ce" stroke-width="0.4" fill="none" stroke-dasharray="2,1"/><path d="M389.30,274.00 L389.80,275.00" stroke="#3182ce" stroke-width="0.4" fill="none" stroke-dasharray="2,1"/><path d="M389.80,275.00 L413.80,275.00" stroke="#3182ce" stroke-width="0.4" fill="none" stroke-dasharray="2,1"/><path d="M413.80,275.00 L414.30,274.00" stroke="#3182ce" stroke-width="0.4" fill="none" stroke-dasharray="2,1"/><path d="M389.30,274.00 L388.80,273.00" stroke="#3182ce" stroke-width="0.4" fill="none" stroke-dasharray="2,1"/><path d="M414.30,274.00 L414.80,273.00" stroke="#3182ce" stroke-width="0.4" fill="none" stroke-dasharray="2,1"/><path d="M339.80,275.00 L339.85,275.00 L339.90,274.99 L339.96,274.99 L340.01,274.98 L340.06,274.97 L340.11,274.95 L340.16,274.93 L340.21,274.91 L340.25,274.89 L340.30,274.87 L340.34,274.84 L340.39,274.81 L340.43,274.78 L340.47,274.74 L340.51,274.71 L340.54,274.67 L340.58,274.63 L340.61,274.59 L340.64,274.54 L340.67,274.50 L340.69,274.45 L340.71,274.41 L340.73,274.36 L340.75,274.31 L340.77,274.26 L340.78,274.21 L340.79,274.16 L340.79,274.10 L340.80,274.05 L340.80,274.00" stroke="#3182ce" stroke-width="0.4" fill="none" stroke-dasharray="2,1"/><path d="M339.80,275.00 L334.80,275.00" stroke="#3182ce" stroke-width="0.4" fill="none" stroke-dasharray="2,1"/><path d="M334.80,275.00 L334.80,284.00" stroke="#3182ce" stroke-width="0.4" fill="none" stroke-dasharray="2,1"/><path d="M334.80,284.00 L334.81,284.26 L334.83,284.52 L334.86,284.78 L334.91,285.04 L334.97,285.29 L335.04,285.55 L335.13,285.79 L335.23,286.03 L335.34,286.27 L335.47,286.50 L335.61,286.72 L335.75,286.94 L335.91,287.15 L336.08,287.35 L336.26,287.54 L336.45,287.72 L336.65,287.89 L336.86,288.05 L337.08,288.19 L337.30,288.33 L337.53,288.46 L337.77,288.57 L338.01,288.67 L338.25,288.76 L338.51,288.83 L338.76,288.89 L339.02,288.94 L339.28,288.97 L339.54,288.99 L339.80,289.00" stroke="#3182ce" stroke-width="0.4" fill="none" stroke-dasharray="2,1"/><path d="M462.80,274.00 L462.80,274.05 L462.81,274.10 L462.81,274.16 L462.82,274.21 L462.83,274.26 L462.85,274.31 L462.87,274.36 L462.89,274.41 L462.91,274.45 L462.93,274.50 L462.96,274.54 L462.99,274.59 L463.02,274.63 L463.06,274.67 L463.09,274.71 L463.13,274.74 L463.17,274.78 L463.21,274.81 L463.26,274.84 L463.30,274.87 L463.35,274.89 L463.39,274.91 L463.44,274.93 L463.49,274.95 L463.54,274.97 L463.59,274.98 L463.64,274.99 L463.70,274.99 L463.75,275.00 L463.80,275.00" stroke="#3182ce" stroke-width="0.4" fill="none" stroke-dasharray="2,1"/><path d="M463.80,275.00 L468.80,275.00" stroke="#3182ce" stroke-width="0.4" fill="none" stroke-dasharray="2,1"/><path d="M468.80,275.00 L468.80,284.00" stroke="#3182ce" stroke-width="0.4" fill="none" stroke-dasharray="2,1"/><path d="M463.80,289.00 L464.06,288.99 L464.32,288.97 L464.58,288.94 L464.84,288.89 L465.09,288.83 L465.35,288.76 L465.59,288.67 L465.83,288.57 L466.07,288.46 L466.30,288.33 L466.52,288.19 L466.74,288.05 L466.95,287.89 L467.15,287.72 L467.34,287.54 L467.52,287.35 L467.69,287.15 L467.85,286.94 L467.99,286.72 L468.13,286.50 L468.26,286.27 L468.37,286.03 L468.47,285.79 L468.56,285.55 L468.63,285.29 L468.69,285.04 L468.74,284.78 L468.77,284.52 L468.79,284.26 L468.80,284.00" stroke="#3182ce" stroke-width="0.4" fill="none" stroke-dasharray="2,1"/><path d="M339.80,289.00 L463.80,289.00" stroke="#3182ce" stroke-width="0.4" fill="none" stroke-dasharray="2,1"/><path d="M333.80,75.00 L333.80,5.00" stroke="#3182ce" stroke-width="0.4" fill="none" stroke-dasharray="2,1"/><path d="M338.80,0.00 L338.54,0.01 L338.28,0.03 L338.02,0.06 L337.76,0.11 L337.51,0.17 L337.25,0.24 L337.01,0.33 L336.77,0.43 L336.53,0.54 L336.30,0.67 L336.08,0.81 L335.86,0.95 L335.65,1.11 L335.45,1.28 L335.26,1.46 L335.08,1.65 L334.91,1.85 L334.75,2.06 L334.61,2.28 L334.47,2.50 L334.34,2.73 L334.23,2.97 L334.13,3.21 L334.04,3.45 L333.97,3.71 L333.91,3.96 L333.86,4.22 L333.83,4.48 L333.81,4.74 L333.80,5.00" stroke="#3182ce" stroke-width="0.4" fill="none" stroke-dasharray="2,1"/><path d="M469.80,75.00 L469.80,5.00" stroke="#3182ce" stroke-width="0.4" fill="none" stroke-dasharray="2,1"/><path d="M469.80,5.00 L469.79,4.74 L469.77,4.48 L469.74,4.22 L469.69,3.96 L469.63,3.71 L469.56,3.45 L469.47,3.21 L469.37,2.97 L469.26,2.73 L469.13,2.50 L468.99,2.28 L468.85,2.06 L468.69,1.85 L468.52,1.65 L468.34,1.46 L468.15,1.28 L467.95,1.11 L467.74,0.95 L467.52,0.81 L467.30,0.67 L467.07,0.54 L466.83,0.43 L466.59,0.33 L466.35,0.24 L466.09,0.17 L465.84,0.11 L465.58,0.06 L465.32,0.03 L465.06,0.01 L464.80,0.00" stroke="#3182ce" stroke-width="0.4" fill="none" stroke-dasharray="2,1"/><path d="M338.80,0.00 L464.80,0.00" stroke="#3182ce" stroke-width="0.4" fill="none" stroke-dasharray="2,1"/><path d="M401.80,38.50 L401.80,13.50" stroke="#3182ce" stroke-width="0.4" fill="none" stroke-dasharray="2,1"/><path d="M401.80,38.50 L389.30,38.50" stroke="#3182ce" stroke-width="0.4" fill="none" stroke-dasharray="2,1"/><path d="M389.30,38.50 L387.80,37.00" stroke="#3182ce" stroke-width="0.4" fill="none" stroke-dasharray="2,1"/><path d="M401.80,38.50 L414.30,38.50" stroke="#3182ce" stroke-width="0.4" fill="none" stroke-dasharray="2,1"/><path d="M414.30,38.50 L415.80,37.00" stroke="#3182ce" stroke-width="0.4" fill="none" stroke-dasharray="2,1"/><path d="M401.80,13.50 L389.30,13.50" stroke="#3182ce" stroke-width="0.4" fill="none" stroke-dasharray="2,1"/><path d="M389.30,13.50 L387.80,15.00" stroke="#3182ce" stroke-width="0.4" fill="none" stroke-dasharray="2,1"/><path d="M401.80,13.50 L414.30,13.50" stroke="#3182ce" stroke-width="0.4" fill="none" stroke-dasharray="2,1"/><path d="M414.30,13.50 L415.80,15.00" stroke="#3182ce" stroke-width="0.4" fill="none" stroke-dasharray="2,1"/><path d="M98.80,75.00 L98.80,34.67" stroke="#3182ce" stroke-width="0.4" fill="none" stroke-dasharray="2,1"/><path d="M102.30,29.90 L102.06,29.98 L101.82,30.08 L101.59,30.18 L101.37,30.30 L101.15,30.43 L100.94,30.57 L100.74,30.72 L100.54,30.88 L100.35,31.05 L100.17,31.23 L100.00,31.42 L99.84,31.61 L99.69,31.82 L99.56,32.03 L99.43,32.25 L99.31,32.47 L99.20,32.70 L99.11,32.94 L99.03,33.17 L98.96,33.42 L98.90,33.66 L98.86,33.91 L98.83,34.16 L98.81,34.42 L98.80,34.67" stroke="#3182ce" stroke-width="0.4" fill="none" stroke-dasharray="2,1"/><path d="M102.30,29.90 L154.30,13.50" stroke="#3182ce" stroke-width="0.4" fill="none" stroke-dasharray="2,1"/><path d="M179.30,13.50 L179.28,12.85 L179.23,12.19 L179.15,11.54 L179.03,10.90 L178.87,10.26 L178.69,9.64 L178.47,9.02 L178.22,8.42 L177.94,7.83 L177.63,7.25 L177.28,6.69 L176.91,6.15 L176.51,5.63 L176.09,5.14 L175.64,4.66 L175.16,4.21 L174.67,3.79 L174.15,3.39 L173.61,3.02 L173.05,2.67 L172.47,2.36 L171.88,2.08 L171.28,1.83 L170.66,1.61 L170.04,1.43 L169.40,1.27 L168.76,1.15 L168.11,1.07 L167.45,1.02 L166.80,1.00 L166.15,1.02 L165.49,1.07 L164.84,1.15 L164.20,1.27 L163.56,1.43 L162.94,1.61 L162.32,1.83 L161.72,2.08 L161.13,2.36 L160.55,2.67 L159.99,3.02 L159.45,3.39 L158.93,3.79 L158.44,4.21 L157.96,4.66 L157.51,5.14 L157.09,5.63 L156.69,6.15 L156.32,6.69 L155.97,7.25 L155.66,7.83 L155.38,8.42 L155.13,9.02 L154.91,9.64 L154.73,10.26 L154.57,10.90 L154.45,11.54 L154.37,12.19 L154.32,12.85 L154.30,13.50" stroke="#3182ce" stroke-width="0.4" fill="none" stroke-dasharray="2,1"/><path d="M234.80,75.00 L234.80,34.67" stroke="#3182ce" stroke-width="0.4" fill="none" stroke-dasharray="2,1"/><path d="M234.80,34.67 L234.79,34.42 L234.77,34.16 L234.74,33.91 L234.70,33.66 L234.64,33.42 L234.57,33.17 L234.49,32.94 L234.40,32.70 L234.29,32.47 L234.17,32.25 L234.04,32.03 L233.91,31.82 L233.76,31.61 L233.60,31.42 L233.43,31.23 L233.25,31.05 L233.06,30.88 L232.86,30.72 L232.66,30.57 L232.45,30.43 L232.23,30.30 L232.01,30.18 L231.78,30.08 L231.54,29.98 L231.30,29.90" stroke="#3182ce" stroke-width="0.4" fill="none" stroke-dasharray="2,1"/><path d="M231.30,29.90 L179.30,13.50" stroke="#3182ce" stroke-width="0.4" fill="none" stroke-dasharray="2,1"/><path d="M154.30,38.50 L154.32,39.15 L154.37,39.81 L154.45,40.46 L154.57,41.10 L154.73,41.74 L154.91,42.36 L155.13,42.98 L155.38,43.58 L155.66,44.17 L155.97,44.75 L156.32,45.31 L156.69,45.85 L157.09,46.37 L157.51,46.86 L157.96,47.34 L158.44,47.79 L158.93,48.21 L159.45,48.61 L159.99,48.98 L160.55,49.33 L161.13,49.64 L161.72,49.92 L162.32,50.17 L162.94,50.39 L163.56,50.57 L164.20,50.73 L164.84,50.85 L165.49,50.93 L166.15,50.98 L166.80,51.00 L167.45,50.98 L168.11,50.93 L168.76,50.85 L169.40,50.73 L170.04,50.57 L170.66,50.39 L171.28,50.17 L171.88,49.92 L172.47,49.64 L173.05,49.33 L173.61,48.98 L174.15,48.61 L174.67,48.21 L175.16,47.79 L175.64,47.34 L176.09,46.86 L176.51,46.37 L176.91,45.85 L177.28,45.31 L177.63,44.75 L177.94,44.17 L178.22,43.58 L178.47,42.98 L178.69,42.36 L178.87,41.74 L179.03,41.10 L179.15,40.46 L179.23,39.81 L179.28,39.15 L179.30,38.50" stroke="#3182ce" stroke-width="0.4" fill="none" stroke-dasharray="2,1"/><path d="M154.30,38.50 L154.30,38.42 L154.29,38.34 L154.28,38.27 L154.27,38.19 L154.25,38.11 L154.23,38.04 L154.20,37.96 L154.17,37.89 L154.14,37.82 L154.10,37.75 L154.06,37.68 L154.01,37.62 L153.97,37.56 L153.91,37.50 L153.86,37.44 L153.80,37.39 L153.74,37.33 L153.68,37.29 L153.62,37.24 L153.55,37.20 L153.48,37.16 L153.41,37.13 L153.34,37.10 L153.26,37.07 L153.19,37.05 L153.11,37.03 L153.03,37.02 L152.96,37.01 L152.88,37.00 L152.80,37.00 L152.72,37.00 L152.64,37.01 L152.57,37.02 L152.49,37.03 L152.41,37.05 L152.34,37.07 L152.26,37.10 L152.19,37.13 L152.12,37.16 L152.05,37.20 L151.98,37.24 L151.92,37.29 L151.86,37.33 L151.80,37.39 L151.74,37.44" stroke="#3182ce" stroke-width="0.4" fill="none" stroke-dasharray="2,1"/><path d="M151.74,37.44 L150.24,38.94" stroke="#3182ce" stroke-width="0.4" fill="none" stroke-dasharray="2,1"/><path d="M181.86,37.44 L181.80,37.39 L181.74,37.33 L181.68,37.29 L181.62,37.24 L181.55,37.20 L181.48,37.16 L181.41,37.13 L181.34,37.10 L181.26,37.07 L181.19,37.05 L181.11,37.03 L181.03,37.02 L180.96,37.01 L180.88,37.00 L180.80,37.00 L180.72,37.00 L180.64,37.01 L180.57,37.02 L180.49,37.03 L180.41,37.05 L180.34,37.07 L180.26,37.10 L180.19,37.13 L180.12,37.16 L180.05,37.20 L179.98,37.24 L179.92,37.29 L179.86,37.33 L179.80,37.39 L179.74,37.44 L179.69,37.50 L179.63,37.56 L179.59,37.62 L179.54,37.68 L179.50,37.75 L179.46,37.82 L179.43,37.89 L179.40,37.96 L179.37,38.04 L179.35,38.11 L179.33,38.19 L179.32,38.27 L179.31,38.34 L179.30,38.42 L179.30,38.50" stroke="#3182ce" stroke-width="0.4" fill="none" stroke-dasharray="2,1"/><path d="M181.86,37.44 L183.36,38.94" stroke="#3182ce" stroke-width="0.4" fill="none" stroke-dasharray="2,1"/></svg>